solid OpenSCAD_Model
  facet normal 1 0 0
    outer loop
      vertex 80 25.4 76.2
      vertex 80 0 76.2
      vertex 80 25.4 25.4
    endloop
  endfacet
  facet normal 1 0 0
    outer loop
      vertex 80 76.2 76.2
      vertex 80 50.8 76.2
      vertex 80 76.2 25.4
    endloop
  endfacet
  facet normal 1 -0 0
    outer loop
      vertex 80 76.2 25.4
      vertex 80 80 0
      vertex 80 80 25.4
    endloop
  endfacet
  facet normal 1 0 0
    outer loop
      vertex 80 50.8 25.4
      vertex 80 76.2 25.4
      vertex 80 50.8 76.2
    endloop
  endfacet
  facet normal 1 0 0
    outer loop
      vertex 80 76.2 25.4
      vertex 80 50.8 25.4
      vertex 80 80 0
    endloop
  endfacet
  facet normal 1 0 0
    outer loop
      vertex 80 0 0
      vertex 80 50.8 25.4
      vertex 80 25.4 25.4
    endloop
  endfacet
  facet normal 1 0 0
    outer loop
      vertex 80 50.8 25.4
      vertex 80 0 0
      vertex 80 80 0
    endloop
  endfacet
  facet normal 1 0 0
    outer loop
      vertex 80 0 0
      vertex 80 25.4 25.4
      vertex 80 0 76.2
    endloop
  endfacet
  facet normal -0 0 1
    outer loop
      vertex 76.2 80 25.4
      vertex 80 76.2 25.4
      vertex 80 80 25.4
    endloop
  endfacet
  facet normal 0 0 1
    outer loop
      vertex 80 76.2 25.4
      vertex 76.2 80 25.4
      vertex 76.2 76.2 25.4
    endloop
  endfacet
  facet normal 0 0 1
    outer loop
      vertex 50.8 80 25.4
      vertex 25.4 80 25.4
      vertex 50.8 50.8 25.4
    endloop
  endfacet
  facet normal -0 0 1
    outer loop
      vertex 50.8 50.8 25.4
      vertex 80 25.4 25.4
      vertex 80 50.8 25.4
    endloop
  endfacet
  facet normal 0 0 1
    outer loop
      vertex 50.8 50.8 25.4
      vertex 25.4 25.4 25.4
      vertex 80 25.4 25.4
    endloop
  endfacet
  facet normal 0 0 1
    outer loop
      vertex 25.4 25.4 25.4
      vertex 50.8 50.8 25.4
      vertex 25.4 80 25.4
    endloop
  endfacet
  facet normal 0 0 -1
    outer loop
      vertex 0 0 0
      vertex 80 80 0
      vertex 80 0 0
    endloop
  endfacet
  facet normal -0 0 -1
    outer loop
      vertex 80 80 0
      vertex 0 0 0
      vertex 0 80 0
    endloop
  endfacet
  facet normal -1 0 0
    outer loop
      vertex 0 0 0
      vertex 0 80 76.2
      vertex 0 80 0
    endloop
  endfacet
  facet normal -1 -0 0
    outer loop
      vertex 0 80 76.2
      vertex 0 0 0
      vertex 0 0 76.2
    endloop
  endfacet
  facet normal 0 1 -0
    outer loop
      vertex 80 80 0
      vertex 76.2 80 25.4
      vertex 80 80 25.4
    endloop
  endfacet
  facet normal 0 1 0
    outer loop
      vertex 76.2 80 25.4
      vertex 80 80 0
      vertex 50.8 80 25.4
    endloop
  endfacet
  facet normal 0 1 0
    outer loop
      vertex 0 80 0
      vertex 50.8 80 25.4
      vertex 80 80 0
    endloop
  endfacet
  facet normal 0 1 -0
    outer loop
      vertex 76.2 80 25.4
      vertex 50.8 80 76.2
      vertex 76.2 80 76.2
    endloop
  endfacet
  facet normal 0 1 0
    outer loop
      vertex 50.8 80 76.2
      vertex 76.2 80 25.4
      vertex 50.8 80 25.4
    endloop
  endfacet
  facet normal 0 1 -0
    outer loop
      vertex 25.4 80 25.4
      vertex 0 80 76.2
      vertex 25.4 80 76.2
    endloop
  endfacet
  facet normal 0 1 0
    outer loop
      vertex 25.4 80 25.4
      vertex 0 80 0
      vertex 0 80 76.2
    endloop
  endfacet
  facet normal 0 1 0
    outer loop
      vertex 50.8 80 25.4
      vertex 0 80 0
      vertex 25.4 80 25.4
    endloop
  endfacet
  facet normal 0 -1 0
    outer loop
      vertex 0 0 0
      vertex 80 0 76.2
      vertex 0 0 76.2
    endloop
  endfacet
  facet normal 0 -1 -0
    outer loop
      vertex 80 0 76.2
      vertex 0 0 0
      vertex 80 0 0
    endloop
  endfacet
  facet normal 0 0 1
    outer loop
      vertex 25.4 80 76.2
      vertex 0 80 76.2
      vertex 25.4 25.4 76.2
    endloop
  endfacet
  facet normal -0 0 1
    outer loop
      vertex 25.4 25.4 76.2
      vertex 80 0 76.2
      vertex 80 25.4 76.2
    endloop
  endfacet
  facet normal 0 0 1
    outer loop
      vertex 25.4 25.4 76.2
      vertex 0 0 76.2
      vertex 80 0 76.2
    endloop
  endfacet
  facet normal 0 0 1
    outer loop
      vertex 0 0 76.2
      vertex 25.4 25.4 76.2
      vertex 0 80 76.2
    endloop
  endfacet
  facet normal 0 1 -0
    outer loop
      vertex 80 25.4 25.4
      vertex 25.4 25.4 76.2
      vertex 80 25.4 76.2
    endloop
  endfacet
  facet normal 0 1 0
    outer loop
      vertex 25.4 25.4 76.2
      vertex 80 25.4 25.4
      vertex 25.4 25.4 25.4
    endloop
  endfacet
  facet normal 1 -0 0
    outer loop
      vertex 25.4 25.4 76.2
      vertex 25.4 80 25.4
      vertex 25.4 80 76.2
    endloop
  endfacet
  facet normal 1 0 0
    outer loop
      vertex 25.4 80 25.4
      vertex 25.4 25.4 76.2
      vertex 25.4 25.4 25.4
    endloop
  endfacet
  facet normal 1 -0 0
    outer loop
      vertex 76.2 76.2 76.2
      vertex 76.2 80 25.4
      vertex 76.2 80 76.2
    endloop
  endfacet
  facet normal 1 0 0
    outer loop
      vertex 76.2 80 25.4
      vertex 76.2 76.2 76.2
      vertex 76.2 76.2 25.4
    endloop
  endfacet
  facet normal 0 0 1
    outer loop
      vertex 76.2 80 76.2
      vertex 50.8 80 76.2
      vertex 76.2 76.2 76.2
    endloop
  endfacet
  facet normal -0 0 1
    outer loop
      vertex 76.2 76.2 76.2
      vertex 80 50.8 76.2
      vertex 80 76.2 76.2
    endloop
  endfacet
  facet normal 0 0 1
    outer loop
      vertex 50.8 50.8 76.2
      vertex 76.2 76.2 76.2
      vertex 50.8 80 76.2
    endloop
  endfacet
  facet normal 0 0 1
    outer loop
      vertex 76.2 76.2 76.2
      vertex 50.8 50.8 76.2
      vertex 80 50.8 76.2
    endloop
  endfacet
  facet normal -1 0 0
    outer loop
      vertex 50.8 50.8 25.4
      vertex 50.8 80 76.2
      vertex 50.8 80 25.4
    endloop
  endfacet
  facet normal -1 -0 0
    outer loop
      vertex 50.8 80 76.2
      vertex 50.8 50.8 25.4
      vertex 50.8 50.8 76.2
    endloop
  endfacet
  facet normal 0 -1 0
    outer loop
      vertex 50.8 50.8 25.4
      vertex 80 50.8 76.2
      vertex 50.8 50.8 76.2
    endloop
  endfacet
  facet normal 0 -1 -0
    outer loop
      vertex 80 50.8 76.2
      vertex 50.8 50.8 25.4
      vertex 80 50.8 25.4
    endloop
  endfacet
  facet normal 0 1 -0
    outer loop
      vertex 80 76.2 25.4
      vertex 76.2 76.2 76.2
      vertex 80 76.2 76.2
    endloop
  endfacet
  facet normal 0 1 0
    outer loop
      vertex 76.2 76.2 76.2
      vertex 80 76.2 25.4
      vertex 76.2 76.2 25.4
    endloop
  endfacet
endsolid OpenSCAD_Model
